<?xml version="1.0" encoding="UTF-8"?>
<svg version="1.1" xmlns="http://www.w3.org/2000/svg" width="1024" height="1024">
<path d="M0 0 C337.92 0 675.84 0 1024 0 C1024 337.92 1024 675.84 1024 1024 C686.08 1024 348.16 1024 0 1024 C0 686.08 0 348.16 0 0 Z " fill="#0F1F2C" transform="translate(0,0)"/>
<path d="M0 0 C33.57058036 -0.62565124 67.3169218 0.21294767 100.50958252 5.6741333 C104.16491673 6.23134888 107.83533081 6.63903407 111.50811768 7.06304932 C125.77771028 8.72281251 139.82750651 11.23119562 153.91192627 14.04034424 C154.95074951 14.24466064 155.98957275 14.44897705 157.05987549 14.65948486 C200.13090306 23.21259672 243.37613075 34.12442928 284.53692627 49.54034424 C285.69841187 49.97491943 285.69841187 49.97491943 286.88336182 50.41827393 C299.71091364 55.48166516 299.71091364 55.48166516 302.34942627 61.10284424 C302.53505127 62.07221924 302.72067627 63.04159424 302.91192627 64.04034424 C303.08214924 64.66491453 303.25237221 65.28948483 303.42775345 65.93298149 C303.95350405 68.22131158 304.11801208 70.35037618 304.22119141 72.69564819 C304.28257734 74.0639594 304.28257734 74.0639594 304.3452034 75.45991325 C304.38365749 76.4392338 304.42211159 77.41855434 304.46173096 78.42755127 C304.50369976 79.45178255 304.54566856 80.47601383 304.58890915 81.53128242 C304.99022981 91.96909586 305.09414526 102.40052072 305.11505127 112.84503174 C305.11787865 113.83189091 305.12070602 114.81875008 305.12361908 115.83551407 C305.13844586 121.06997168 305.14777598 126.30440296 305.15216064 131.53887939 C305.15651562 135.75771878 305.17031605 139.97635025 305.19317627 144.19512939 C305.37848467 179.1628906 304.69287802 214.17590359 299.22442627 248.79034424 C299.03742661 250.01837265 299.03742661 250.01837265 298.84664917 251.27120972 C285.5927776 338.0958683 251.75421879 420.0591757 192.91192627 486.04034424 C192.11657471 486.94655518 191.32122314 487.85276611 190.50177002 488.78643799 C184.15340998 495.87929667 177.44268592 502.61319681 170.72442627 509.35284424 C170.01398163 510.06730713 170.01398163 510.06730713 169.28918457 510.79620361 C163.67291288 516.436544 157.9724766 521.88118666 151.91192627 527.04034424 C150.82868086 527.98948115 149.74659954 528.93994869 148.66583252 529.89190674 C139.72361155 537.69132521 130.43583028 544.96597083 120.91192627 552.04034424 C120.31944092 552.48088135 119.72695557 552.92141846 119.11651611 553.37530518 C91.31532316 573.91948064 61.16293334 592.43556887 28.91192627 605.04034424 C27.90774658 605.46315674 26.90356689 605.88596924 25.86895752 606.32159424 C17.96977783 608.24160621 11.18343567 604.78888806 4.09942627 601.60284424 C3.0882373 601.15400879 2.07704834 600.70517334 1.03521729 600.24273682 C-8.57239171 595.92161485 -17.90034717 591.19008171 -27.08807373 586.04034424 C-27.91532959 585.5785376 -28.74258545 585.11673096 -29.59490967 584.64093018 C-59.34702357 567.88917199 -87.73341449 547.91075136 -113.08807373 525.04034424 C-113.60579346 524.57370361 -114.12351318 524.10706299 -114.65692139 523.62628174 C-117.00035385 521.50895005 -119.33457911 519.38197486 -121.66229248 517.24737549 C-123.86009934 515.24776056 -126.08799459 513.29316105 -128.33807373 511.35284424 C-134.14214298 506.29349263 -139.32792201 500.82936502 -144.34588623 494.99737549 C-145.98602502 493.15497744 -147.68914934 491.44045788 -149.46307373 489.72784424 C-153.18644409 486.06252197 -156.42528364 482.06532222 -159.69744873 477.99737549 C-162.14074361 474.97519538 -164.64116896 472.00775386 -167.15057373 469.04034424 C-170.92658899 464.510286 -174.50741789 459.90412771 -177.92010498 455.09503174 C-179.49879456 452.8706439 -181.09781189 450.67396599 -182.72479248 448.48565674 C-191.92433546 435.96857946 -199.55398521 422.60773256 -207.08807373 409.04034424 C-207.57582275 408.1655542 -208.06357178 407.29076416 -208.56610107 406.38946533 C-224.50243014 377.60927584 -235.53911786 346.43623835 -245.08807373 315.04034424 C-245.32864502 314.25997803 -245.56921631 313.47961182 -245.81707764 312.67559814 C-252.40018525 291.12956508 -256.15649865 268.93494962 -259.27557373 246.66534424 C-259.45634964 245.4111972 -259.45634964 245.4111972 -259.64077759 244.13171387 C-264.9019489 207.2660027 -265.55117427 170.46662847 -265.41064453 133.28863525 C-265.39709145 128.41248232 -265.40241406 123.53642051 -265.40777302 118.66025734 C-265.41113186 113.89692032 -265.40445156 109.13363827 -265.39464378 104.37031174 C-265.3908458 102.12916731 -265.3896206 99.88801673 -265.39122963 97.64686966 C-265.39244693 87.54066912 -265.3500247 77.43060089 -264.4442749 67.35821533 C-264.33097336 66.05419769 -264.21767181 64.75018005 -264.10093689 63.40664673 C-262.59540866 58.40294668 -259.65187295 56.50495877 -255.14227295 53.92877197 C-254.56493408 53.69617676 -253.98759521 53.46358154 -253.39276123 53.22393799 C-252.69666748 52.9411499 -252.00057373 52.65836182 -251.28338623 52.36700439 C-250.51768311 52.07358154 -249.75197998 51.78015869 -248.96307373 51.47784424 C-248.11744873 51.14832764 -247.27182373 50.81881104 -246.40057373 50.47930908 C-168.98382584 20.95211109 -82.94475856 1.60259815 0 0 Z " fill="#101F2C" transform="translate(492.08807373046875,208.95965576171875)"/>
<path d="M0 0 C33.57058036 -0.62565124 67.3169218 0.21294767 100.50958252 5.6741333 C104.16491673 6.23134888 107.83533081 6.63903407 111.50811768 7.06304932 C125.77771028 8.72281251 139.82750651 11.23119562 153.91192627 14.04034424 C154.95074951 14.24466064 155.98957275 14.44897705 157.05987549 14.65948486 C200.13090306 23.21259672 243.37613075 34.12442928 284.53692627 49.54034424 C285.69841187 49.97491943 285.69841187 49.97491943 286.88336182 50.41827393 C299.71091364 55.48166516 299.71091364 55.48166516 302.34942627 61.10284424 C302.53505127 62.07221924 302.72067627 63.04159424 302.91192627 64.04034424 C303.08214924 64.66491453 303.25237221 65.28948483 303.42775345 65.93298149 C303.95350405 68.22131158 304.11801208 70.35037618 304.22119141 72.69564819 C304.28257734 74.0639594 304.28257734 74.0639594 304.3452034 75.45991325 C304.38365749 76.4392338 304.42211159 77.41855434 304.46173096 78.42755127 C304.50369976 79.45178255 304.54566856 80.47601383 304.58890915 81.53128242 C304.99022981 91.96909586 305.09414526 102.40052072 305.11505127 112.84503174 C305.11787865 113.83189091 305.12070602 114.81875008 305.12361908 115.83551407 C305.13844586 121.06997168 305.14777598 126.30440296 305.15216064 131.53887939 C305.15651562 135.75771878 305.17031605 139.97635025 305.19317627 144.19512939 C305.37848467 179.1628906 304.69287802 214.17590359 299.22442627 248.79034424 C299.03742661 250.01837265 299.03742661 250.01837265 298.84664917 251.27120972 C285.5927776 338.0958683 251.75421879 420.0591757 192.91192627 486.04034424 C192.11657471 486.94655518 191.32122314 487.85276611 190.50177002 488.78643799 C184.15340998 495.87929667 177.44268592 502.61319681 170.72442627 509.35284424 C170.01398163 510.06730713 170.01398163 510.06730713 169.28918457 510.79620361 C163.67291288 516.436544 157.9724766 521.88118666 151.91192627 527.04034424 C150.82868086 527.98948115 149.74659954 528.93994869 148.66583252 529.89190674 C139.72361155 537.69132521 130.43583028 544.96597083 120.91192627 552.04034424 C120.31944092 552.48088135 119.72695557 552.92141846 119.11651611 553.37530518 C91.31532316 573.91948064 61.16293334 592.43556887 28.91192627 605.04034424 C27.90774658 605.46315674 26.90356689 605.88596924 25.86895752 606.32159424 C17.96977783 608.24160621 11.18343567 604.78888806 4.09942627 601.60284424 C3.0882373 601.15400879 2.07704834 600.70517334 1.03521729 600.24273682 C-8.57239171 595.92161485 -17.90034717 591.19008171 -27.08807373 586.04034424 C-27.91532959 585.5785376 -28.74258545 585.11673096 -29.59490967 584.64093018 C-59.34702357 567.88917199 -87.73341449 547.91075136 -113.08807373 525.04034424 C-113.60579346 524.57370361 -114.12351318 524.10706299 -114.65692139 523.62628174 C-117.00035385 521.50895005 -119.33457911 519.38197486 -121.66229248 517.24737549 C-123.86009934 515.24776056 -126.08799459 513.29316105 -128.33807373 511.35284424 C-134.14214298 506.29349263 -139.32792201 500.82936502 -144.34588623 494.99737549 C-145.98602502 493.15497744 -147.68914934 491.44045788 -149.46307373 489.72784424 C-153.18644409 486.06252197 -156.42528364 482.06532222 -159.69744873 477.99737549 C-162.14074361 474.97519538 -164.64116896 472.00775386 -167.15057373 469.04034424 C-170.92658899 464.510286 -174.50741789 459.90412771 -177.92010498 455.09503174 C-179.49879456 452.8706439 -181.09781189 450.67396599 -182.72479248 448.48565674 C-191.92433546 435.96857946 -199.55398521 422.60773256 -207.08807373 409.04034424 C-207.57582275 408.1655542 -208.06357178 407.29076416 -208.56610107 406.38946533 C-224.50243014 377.60927584 -235.53911786 346.43623835 -245.08807373 315.04034424 C-245.32864502 314.25997803 -245.56921631 313.47961182 -245.81707764 312.67559814 C-252.40018525 291.12956508 -256.15649865 268.93494962 -259.27557373 246.66534424 C-259.45634964 245.4111972 -259.45634964 245.4111972 -259.64077759 244.13171387 C-264.9019489 207.2660027 -265.55117427 170.46662847 -265.41064453 133.28863525 C-265.39709145 128.41248232 -265.40241406 123.53642051 -265.40777302 118.66025734 C-265.41113186 113.89692032 -265.40445156 109.13363827 -265.39464378 104.37031174 C-265.3908458 102.12916731 -265.3896206 99.88801673 -265.39122963 97.64686966 C-265.39244693 87.54066912 -265.3500247 77.43060089 -264.4442749 67.35821533 C-264.33097336 66.05419769 -264.21767181 64.75018005 -264.10093689 63.40664673 C-262.59540866 58.40294668 -259.65187295 56.50495877 -255.14227295 53.92877197 C-254.56493408 53.69617676 -253.98759521 53.46358154 -253.39276123 53.22393799 C-252.69666748 52.9411499 -252.00057373 52.65836182 -251.28338623 52.36700439 C-250.51768311 52.07358154 -249.75197998 51.78015869 -248.96307373 51.47784424 C-248.11744873 51.14832764 -247.27182373 50.81881104 -246.40057373 50.47930908 C-168.98382584 20.95211109 -82.94475856 1.60259815 0 0 Z M-44.08807373 32.04034424 C-44.86048401 32.10824158 -45.63289429 32.17613892 -46.42871094 32.24609375 C-89.15673165 36.01868499 -131.98454016 44.8036449 -173.08807373 57.04034424 C-174.24001221 57.37759521 -175.39195068 57.71484619 -176.57879639 58.06231689 C-207.90210807 64.70510657 -207.90210807 64.70510657 -235.08807373 78.04034424 C-235.3375791 80.64257983 -235.51459626 83.21607577 -235.64276123 85.82550049 C-235.68480682 86.66226822 -235.72685242 87.49903595 -235.77017212 88.36116028 C-236.32406011 100.72592783 -236.24006881 113.10359257 -236.21307373 125.47784424 C-236.21119049 126.78125763 -236.20930725 128.08467102 -236.20736694 129.42758179 C-236.11817171 182.14357991 -235.00101399 235.61804109 -222.08807373 287.04034424 C-221.61627686 288.94565918 -221.61627686 288.94565918 -221.13494873 290.88946533 C-212.85286803 324.17706839 -202.13926342 356.61969944 -186.11688232 387.0725708 C-184.99052706 389.22691903 -183.89249883 391.39454666 -182.79510498 393.56378174 C-170.69288548 417.28783847 -155.65179174 439.03322846 -138.08807373 459.04034424 C-137.45514404 459.77253174 -136.82221436 460.50471924 -136.17010498 461.25909424 C-134.48895812 463.1979913 -132.79020564 465.11985046 -131.08807373 467.04034424 C-130.46739014 467.74513916 -129.84670654 468.44993408 -129.20721436 469.17608643 C-123.5831656 475.50248365 -117.74332096 481.57134626 -111.75946045 487.55426025 C-110.21633843 489.0995749 -108.68143068 490.6527487 -107.14666748 492.20635986 C-101.50512633 497.87898203 -95.74847575 503.15276508 -89.47088623 508.12506104 C-87.21715187 509.93659239 -85.08325708 511.82546356 -82.96307373 513.79034424 C-76.04887111 519.99952083 -68.53257682 525.49023989 -61.08807373 531.04034424 C-60.48302002 531.49199951 -59.87796631 531.94365479 -59.25457764 532.40899658 C-38.74800171 547.62052977 -16.47059598 560.75690709 6.53692627 571.79034424 C7.84282715 572.41803711 7.84282715 572.41803711 9.17510986 573.05841064 C15.80665942 576.44883943 15.80665942 576.44883943 22.99810791 576.5022583 C24.02472534 576.03384521 24.02472534 576.03384521 25.07208252 575.55596924 C25.85486572 575.20389404 26.63764893 574.85181885 27.44415283 574.48907471 C28.27914307 574.09349365 29.1141333 573.6979126 29.97442627 573.29034424 C31.29845459 572.67570313 31.29845459 572.67570313 32.64923096 572.04864502 C62.46154219 557.98912941 90.2886226 539.70763481 115.91192627 519.04034424 C117.36018799 517.88405518 117.36018799 517.88405518 118.83770752 516.70440674 C124.44137677 512.18659702 129.82401359 507.4792558 135.11114502 502.59503174 C137.25251426 500.64181628 139.41731539 498.74442547 141.61505127 496.85675049 C146.61941602 492.49067652 151.29072382 487.80772394 155.97442627 483.10284424 C156.83358643 482.24755127 157.69274658 481.3922583 158.57794189 480.51104736 C163.56617729 475.51519053 168.31749334 470.3978027 172.91192627 465.04034424 C173.92116405 463.90662039 174.93282772 462.77505072 175.94708252 461.64581299 C215.86056622 416.78480888 242.72606943 361.8336529 257.91192627 304.04034424 C258.20003174 302.96752197 258.48813721 301.89469971 258.78497314 300.78936768 C273.5112014 245.78257388 276.48165916 189.76624101 276.35797119 133.08575439 C276.34617621 127.41372318 276.36725845 121.74228681 276.39588833 116.07033348 C276.41413586 111.64382992 276.41398652 107.21747481 276.40825081 102.79094315 C276.40809792 100.69451654 276.4141151 98.59807969 276.42654228 96.50168991 C276.44132635 93.61621787 276.43089009 90.73192987 276.41363525 87.84649658 C276.42813721 86.56611008 276.42813721 86.56611008 276.44293213 85.25985718 C276.4480442 80.70445744 276.4480442 80.70445744 274.00917053 77.04722595 C271.89215384 76.03085154 269.83523808 75.11748281 267.61505127 74.34893799 C266.75621338 74.04931152 265.89737549 73.74968506 265.01251221 73.440979 C264.07181885 73.12314453 263.13112549 72.80531006 262.16192627 72.47784424 C261.15677979 72.13487305 260.1516333 71.79190186 259.11602783 71.4385376 C255.71953714 70.29056885 252.31718798 69.16202248 248.91192627 68.04034424 C247.70794189 67.64363525 246.50395752 67.24692627 245.26348877 66.8381958 C224.36352888 60.01094799 203.26671032 54.25784079 181.91192627 49.04034424 C180.90555115 48.79317657 180.90555115 48.79317657 179.87884521 48.54101562 C145.99388401 40.22074176 111.97804893 34.43770158 77.22442627 31.35284424 C76.5430661 31.29199646 75.86170593 31.23114868 75.15969849 31.16845703 C57.42842518 29.60609062 39.71214795 28.80428654 21.91192627 28.79034424 C20.99894775 28.78933716 20.08596924 28.78833008 19.14532471 28.78729248 C-2.01638462 28.80278288 -23.01922075 30.14569892 -44.08807373 32.04034424 Z " fill="#F5F3EC" transform="translate(492.08807373046875,208.95965576171875)"/>
<path d="M0 0 C2.88598659 2.75063043 4.9923238 5.56712156 7 9 C7.639375 10.03125 8.27875 11.0625 8.9375 12.125 C11.63014442 19.32782383 11.25978725 29.05552494 8.25 36.0625 C7.53242462 37.39300435 6.7849521 38.70809967 6 40 C5.4225 41.051875 4.845 42.10375 4.25 43.1875 C0.93122654 47.33596683 -3.23552286 50.61776143 -8 53 C1.98250175 104.64270662 1.98250175 104.64270662 30.98828125 146.71875 C40.43182322 152.7332777 50.01154561 154.56052252 61 153 C75.46169659 149.6814212 86.48419266 141.06870668 97 131 C97.67546875 130.38769531 98.3509375 129.77539062 99.046875 129.14453125 C106.55521138 122.10171173 113.10347815 113.04341332 118 104 C117.85964866 101.47367594 117.17686444 99.44910605 116.25390625 97.10546875 C113.64405343 90.17499833 112.5136331 82.93776121 114.69140625 75.703125 C115.64395382 73.64657878 116.70731938 71.8604936 118 70 C118.42410156 69.38382812 118.84820313 68.76765625 119.28515625 68.1328125 C123.62221483 62.503093 129.31073492 59.22975503 136 57 C145.02950796 56.1780682 152.57160119 56.4512307 160 62 C165.96254109 67.45292219 170.4575806 72.95796516 171.34375 81.1953125 C171.69894247 89.41801813 170.49886562 95.12015579 166 102 C165.46375 102.9075 164.9275 103.815 164.375 104.75 C160.32352432 108.58824012 154.55339719 112.30303282 149.01342773 113.38964844 C146.57694783 113.94490356 145.02340337 114.51318979 143 116 C140.78510229 120.11823692 139.72440226 124.48905172 138.5625 129 C138.19129306 130.34850719 137.81753627 131.69631471 137.44140625 133.04345703 C136.45102727 136.62778305 135.50481646 140.22233943 134.56964111 143.82141113 C134.01312808 145.94979174 133.44445366 148.07447572 132.87060547 150.19824219 C125.91021984 175.96701654 120.16147163 202.00674902 114.44927979 228.0748291 C113.80838112 230.99278372 113.16210004 233.90952945 112.51470947 236.8260498 C112.07277637 238.82843801 111.63945969 240.83256054 111.20654297 242.83691406 C110.94373535 244.0225293 110.68092773 245.20814453 110.41015625 246.4296875 C110.18465088 247.46335449 109.95914551 248.49702148 109.72680664 249.56201172 C109 252 109 252 107 254 C105.10075146 254.25299966 105.10075146 254.25299966 102.73300266 254.25726891 C101.8321546 254.2637178 100.93130654 254.27016669 100.00316006 254.276811 C99.00716744 254.2737138 98.01117482 254.2706166 96.98500061 254.26742554 C95.93185195 254.27195665 94.87870329 254.27648776 93.79364103 254.28115618 C90.24137121 254.29388336 86.68925308 254.29217447 83.13696289 254.29052734 C80.59969382 254.29650737 78.06242657 254.30331169 75.52516174 254.31088257 C69.33475789 254.32675949 63.14441022 254.33299323 56.9539879 254.33410732 C51.92402085 254.33505657 46.89406639 254.33916066 41.86410332 254.34550858 C27.61402788 254.36312741 13.36398261 254.37234638 -0.8861038 254.37084763 C-1.65482968 254.37076772 -2.42355557 254.3706878 -3.21557617 254.37060547 C-4.37006719 254.37048283 -4.37006719 254.37048283 -5.54788125 254.37035771 C-18.02617531 254.36954451 -30.50434874 254.38868898 -42.98260789 254.4168822 C-55.78460481 254.44557946 -68.58654284 254.45942426 -81.38857275 254.45769465 C-88.58023104 254.45702967 -95.77176287 254.46256877 -102.96339226 254.48405075 C-109.72425324 254.50411603 -116.4848021 254.50362132 -123.2456913 254.48901749 C-125.73261275 254.48691679 -128.21955057 254.49170453 -130.70644379 254.5037384 C-134.09062187 254.51905853 -137.47386069 254.50997019 -140.85801697 254.49447632 C-141.85177886 254.50476344 -142.84554076 254.51505057 -143.86941665 254.52564943 C-144.77287246 254.51645184 -145.67632827 254.50725425 -146.60716152 254.49777794 C-147.7794407 254.49843004 -147.7794407 254.49843004 -148.9754023 254.49909532 C-151 254 -151 254 -152.72029597 252.13876688 C-154.29699742 249.50362879 -154.90182198 247.13050129 -155.56933594 244.13232422 C-155.83804504 242.95106964 -156.10675415 241.76981506 -156.38360596 240.55276489 C-156.80473663 238.63559158 -156.80473663 238.63559158 -157.234375 236.6796875 C-157.53851644 235.33120389 -157.84377384 233.98297155 -158.15008545 232.63497925 C-158.78798173 229.82453641 -159.42150433 227.01316133 -160.05200195 224.2010498 C-161.51636089 217.68878707 -163.04795723 211.19239282 -164.578125 204.6953125 C-164.87588837 203.42884384 -165.17365173 202.16237518 -165.48043823 200.85752869 C-166.40126733 196.94612422 -167.32454629 193.03531228 -168.25 189.125 C-168.48874218 188.11605871 -168.48874218 188.11605871 -168.73230743 187.08673477 C-173.00502759 169.04554097 -177.41516166 151.05468083 -182.375 133.1875 C-182.6078772 132.34825989 -182.84075439 131.50901978 -183.08068848 130.64434814 C-185.05625467 122.63781284 -185.05625467 122.63781284 -188 115 C-189.79719003 114.42857055 -191.61398513 113.91835042 -193.4375 113.4375 C-201.81372634 110.75191611 -208.45193169 105.56977257 -212.5625 97.6875 C-215.29805328 90.67021116 -216.45517958 83.11942696 -214.3515625 75.71875 C-210.6973213 67.84807664 -204.80866005 61.42727233 -196.87890625 57.84375 C-189.76054376 55.75749993 -180.80442164 55.62815218 -173.9375 58.765625 C-166.01854164 63.81076783 -160.01380655 69.84751466 -157.43359375 79.01171875 C-155.7977293 86.51311519 -157.73584533 91.41043358 -161.00390625 98.16796875 C-162.14297116 101.40648662 -162.10663642 102.78400027 -161 106 C-156.28894805 114.41470914 -149.3745156 121.80382631 -143 129 C-142.34257812 129.74378906 -141.68515625 130.48757813 -141.0078125 131.25390625 C-130.24322316 142.68839493 -114.41283185 153.57696984 -98.375 154.375 C-87.37241526 154.10664427 -77.88245756 150.07770153 -70.28613281 142.22924805 C-66.1697779 137.63806489 -62.94820872 133.03869456 -60.125 127.5625 C-59.70283203 126.74450928 -59.28066406 125.92651855 -58.84570312 125.08374023 C-50.52349681 108.4284428 -45.41289595 90.54324648 -40.375 72.6875 C-40.14659424 71.88611603 -39.91818848 71.08473206 -39.68286133 70.25906372 C-39.03476928 67.97131878 -38.40147492 65.68004016 -37.7734375 63.38671875 C-37.57813446 62.69925568 -37.38283142 62.0117926 -37.18161011 61.30349731 C-35.91617672 56.60619718 -35.91617672 56.60619718 -37 52 C-38.64361535 50.54313839 -38.64361535 50.54313839 -40.6875 49.3125 C-48.3890996 43.80544222 -52.14613571 36.14675193 -54 27 C-54.96234862 19.4386894 -52.40098395 12.38538737 -48.046875 6.24609375 C-34.9267668 -9.14480241 -16.71826871 -11.43219128 0 0 Z " fill="#F6F4ED" transform="translate(534,329)"/>
<path d="M0 0 C32.19665605 -0.04558755 64.39330296 -0.08099988 96.58998372 -0.10213066 C100.38778868 -0.10463219 104.18559358 -0.10722082 107.98339844 -0.10986328 C109.11754981 -0.11065021 109.11754981 -0.11065021 110.27461334 -0.11145304 C122.53057303 -0.12016475 134.78651404 -0.13593892 147.04246263 -0.15430559 C159.61046904 -0.17298336 172.17846563 -0.18411222 184.74648535 -0.18817699 C192.50678446 -0.19092647 200.26703075 -0.19962234 208.0273136 -0.21583293 C213.96962065 -0.22761649 219.91190033 -0.22891673 225.85421944 -0.22621536 C228.29801955 -0.22676802 230.74182156 -0.23077834 233.18560982 -0.23841095 C236.50869264 -0.24828539 239.83154499 -0.24599647 243.15463257 -0.24050903 C244.1332168 -0.24633472 245.11180104 -0.2521604 246.12003934 -0.25816262 C247.44796111 -0.25218947 247.44796111 -0.25218947 248.80270958 -0.24609566 C249.57050409 -0.2468551 250.33829859 -0.24761454 251.1293596 -0.24839699 C253 0 253 0 255 2 C255.046875 3.85546875 255.046875 3.85546875 254.75 6.1875 C254.64042969 7.06664062 254.53085937 7.94578125 254.41796875 8.8515625 C254.28003906 9.89054688 254.14210938 10.92953125 254 12 C253.85175781 13.30710937 253.70351563 14.61421875 253.55078125 15.9609375 C253.38890988 17.32823055 253.22615201 18.69541894 253.0625 20.0625 C252.90910156 21.35285156 252.75570312 22.64320313 252.59765625 23.97265625 C252.40042969 24.97167969 252.20320312 25.97070312 252 27 C249.71489104 28.14255448 248.45664149 28.12623515 245.9176178 28.12863445 C245.05795379 28.1318589 244.19828978 28.13508335 243.31257534 28.1384055 C242.36259198 28.1368569 241.41260862 28.1353083 240.43383789 28.13371277 C239.42898629 28.13597833 238.42413469 28.13824388 237.38883305 28.14057809 C234.00009597 28.14694076 230.61139866 28.14608728 227.22265625 28.14526367 C224.80199125 28.14825372 222.38132673 28.15165588 219.96066284 28.15544128 C214.05535645 28.16337907 208.15005947 28.16649657 202.24474883 28.16705366 C197.4469474 28.16752827 192.64914927 28.16958027 187.85134888 28.17275429 C174.26026284 28.18156312 160.66918471 28.18617323 147.07809579 28.18542381 C146.34495113 28.18538386 145.61180648 28.1853439 144.85644531 28.18530273 C144.1224097 28.18526185 143.38837409 28.18522097 142.63209498 28.18517885 C130.72868447 28.18477217 118.82530557 28.19434683 106.92190421 28.2084411 C94.71091497 28.22278597 82.49994117 28.22971235 70.28894329 28.22884732 C63.42879083 28.22851473 56.56867151 28.23128902 49.70852661 28.24202538 C43.260463 28.25205187 36.81245144 28.25181444 30.3643837 28.24450874 C27.99153669 28.24345773 25.61868541 28.24585611 23.24584579 28.2518692 C20.01920034 28.25951936 16.79280176 28.25499099 13.56616211 28.24723816 C12.61617875 28.25238172 11.66619539 28.25752529 10.68742466 28.26282471 C9.82776065 28.25822592 8.96809664 28.25362712 8.0823822 28.24888897 C7.33693618 28.24910634 6.59149015 28.24932371 5.82345486 28.24954766 C4 28 4 28 2 26 C1.40234375 23.09375 1.40234375 23.09375 0.9375 19.5 C0.77507812 18.24703125 0.61265625 16.9940625 0.4453125 15.703125 C0.29835938 14.48109375 0.15140625 13.2590625 0 12 C-0.12632812 10.98421875 -0.25265625 9.9684375 -0.3828125 8.921875 C-1.14017857 2.28035714 -1.14017857 2.28035714 0 0 Z " fill="#F7F4EE" transform="translate(385,605)"/>
<path d="M0 0 C0.33 0 0.66 0 1 0 C1.33 7.26 1.66 14.52 2 22 C2.33 22 2.66 22 3 22 C3.38747372 34.42068542 2.20013125 46.65077713 1 59 C0.67 59 0.34 59 0 59 C0 39.53 0 20.06 0 0 Z " fill="#232F3B" transform="translate(256,306)"/>
<path d="M0 0 C5.16228701 5.65866076 5.11586869 15.08720353 4.8984375 22.4296875 C4.66754585 24.96949562 4.3877256 27.47978361 4 30 C3.67 30 3.34 30 3 30 C1.62595568 23.54689899 0.78770513 17.50412802 1.02734375 10.8984375 C1.22036167 8.9880784 1.22036167 8.9880784 0 8 C-0.14115161 5.32941149 -0.04247107 2.67567762 0 0 Z " fill="#1C2730" transform="translate(228,429)"/>
<path d="M0 0 C0.33 0 0.66 0 1 0 C2.03387512 8.0125322 2.10466648 15.92905177 2 24 C1.67 24 1.34 24 1 24 C0.67 26.31 0.34 28.62 0 31 C-0.33 31 -0.66 31 -1 31 C-1.02473868 27.06731133 -1.04287835 23.13465287 -1.05493164 19.2019043 C-1.06242729 17.20685232 -1.07513345 15.21182214 -1.08789062 13.21679688 C-1.09111328 11.96318359 -1.09433594 10.70957031 -1.09765625 9.41796875 C-1.10289307 8.26063232 -1.10812988 7.1032959 -1.11352539 5.91088867 C-1 3 -1 3 0 0 Z " fill="#182530" transform="translate(766,364)"/>
<path d="M0 0 C1.37478516 0.01740234 1.37478516 0.01740234 2.77734375 0.03515625 C3.69644531 0.04417969 4.61554687 0.05320313 5.5625 0.0625 C6.27277344 0.07410156 6.98304688 0.08570313 7.71484375 0.09765625 C7.71484375 0.42765625 7.71484375 0.75765625 7.71484375 1.09765625 C10.18984375 1.59265625 10.18984375 1.59265625 12.71484375 2.09765625 C12.71484375 2.42765625 12.71484375 2.75765625 12.71484375 3.09765625 C4.13484375 3.09765625 -4.44515625 3.09765625 -13.28515625 3.09765625 C-13.28515625 2.76765625 -13.28515625 2.43765625 -13.28515625 2.09765625 C-12.57488281 2.03707031 -11.86460937 1.97648438 -11.1328125 1.9140625 C-9.75416016 1.78837891 -9.75416016 1.78837891 -8.34765625 1.66015625 C-7.43113281 1.57894531 -6.51460937 1.49773437 -5.5703125 1.4140625 C-2.93338839 1.04894993 -2.66304439 0.11380532 0 0 Z " fill="#E9E8E0" transform="translate(524.28515625,208.90234375)"/>
<path d="M0 0 C2.31 0 4.62 0 7 0 C7 0.33 7 0.66 7 1 C11.29 1.33 15.58 1.66 20 2 C20 2.33 20 2.66 20 3 C10.76 3 1.52 3 -8 3 C-8 2.67 -8 2.34 -8 2 C-5.36 1.67 -2.72 1.34 0 1 C0 0.67 0 0.34 0 0 Z " fill="#EEECE4" transform="translate(490,209)"/>
<path d="M0 0 C3.63 0 7.26 0 11 0 C11 0.66 11 1.32 11 2 C11.66 2.33 12.32 2.66 13 3 C7.06 3 1.12 3 -5 3 C-5 2.67 -5 2.34 -5 2 C-3.35 1.67 -1.7 1.34 0 1 C0 0.67 0 0.34 0 0 Z " fill="#1C2832" transform="translate(491,238)"/>
<path d="M0 0 C0.99 0 1.98 0 3 0 C1.43551329 5.6143991 -0.16395187 10.86810338 -3 16 C-4.47928703 13.04142593 -3.45088625 11.15200625 -2.625 8 C-2.34914063 6.9275 -2.07328125 5.855 -1.7890625 4.75 C-1 2 -1 2 0 0 Z " fill="#121921" transform="translate(482,431)"/>
<path d="M0 0 C2.72923388 -0.0270817 5.45819637 -0.04687847 8.1875 -0.0625 C8.95642578 -0.07087891 9.72535156 -0.07925781 10.51757812 -0.08789062 C14.48526789 -0.10491934 18.12571234 0.01395885 22 1 C18.36576791 3.32590854 15.22911669 3.16265833 11 3 C11 2.67 11 2.34 11 2 C7.37 1.67 3.74 1.34 0 1 C0 0.67 0 0.34 0 0 Z " fill="#ECEBE6" transform="translate(523,236)"/>
<path d="M0 0 C0.66 0.66 1.32 1.32 2 2 C1.34 3.32 0.68 4.64 0 6 C-0.66 6 -1.32 6 -2 6 C-2.103125 6.9075 -2.20625 7.815 -2.3125 8.75 C-3.00414949 12.01961575 -3.82134921 13.53717737 -6 16 C-6.66 15.67 -7.32 15.34 -8 15 C-5.36 10.05 -2.72 5.1 0 0 Z " fill="#EBECEA" transform="translate(725,582)"/>
<path d="M0 0 C0.66 0.33 1.32 0.66 2 1 C2.4140625 3.28515625 2.4140625 3.28515625 2.625 6.0625 C2.69976562 6.98160156 2.77453125 7.90070313 2.8515625 8.84765625 C2.92503906 9.91306641 2.92503906 9.91306641 3 11 C2.01 11.33 1.02 11.66 0 12 C-0.19401633 10.18818595 -0.38004375 8.37551468 -0.5625 6.5625 C-0.66691406 5.55316406 -0.77132812 4.54382813 -0.87890625 3.50390625 C-0.91886719 2.67761719 -0.95882812 1.85132813 -1 1 C-0.67 0.67 -0.34 0.34 0 0 Z " fill="#ECEAE7" transform="translate(234,452)"/>
<path d="M0 0 C2.28062828 3.42094242 2.21925007 4.68187222 2.125 8.6875 C2.10695313 9.68136719 2.08890625 10.67523438 2.0703125 11.69921875 C2.03550781 12.83810547 2.03550781 12.83810547 2 14 C-0.08557757 10.87163364 -0.36393593 9.51376966 -0.6875 5.875 C-0.77386719 4.98554688 -0.86023438 4.09609375 -0.94921875 3.1796875 C-0.96597656 2.46039063 -0.98273438 1.74109375 -1 1 C-0.67 0.67 -0.34 0.34 0 0 Z " fill="#0C141B" transform="translate(269,481)"/>
<path d="M0 0 C5.65020618 0.60108576 10.66164461 2.07528683 16 4 C12.83930271 5.00796724 10.66488042 4.97083624 7.4375 4.25 C6.67308594 4.09015625 5.90867187 3.9303125 5.12109375 3.765625 C2.75655512 2.91212671 1.62360583 1.88815503 0 0 Z " fill="#0A0E13" transform="translate(708,268)"/>
<path d="M0 0 C0.89203125 0.20367187 1.7840625 0.40734375 2.703125 0.6171875 C3.37859375 0.78476563 4.0540625 0.95234375 4.75 1.125 C4.75 1.785 4.75 2.445 4.75 3.125 C-4.66002278 2.16144647 -4.66002278 2.16144647 -9.25 1.125 C-5.82794357 -1.03377391 -3.8855015 -0.92025036 0 0 Z " fill="#E4E6E5" transform="translate(626.25,245.875)"/>
<path d="M0 0 C-0.33 0.66 -0.66 1.32 -1 2 C-2.92578125 2.44921875 -2.92578125 2.44921875 -5.3125 2.6875 C-6.48232422 2.81705078 -6.48232422 2.81705078 -7.67578125 2.94921875 C-9.99287105 2.99984424 -11.79287394 2.67173402 -14 2 C-14 1.67 -14 1.34 -14 1 C-12.04310963 0.63794536 -10.08442332 0.28558579 -8.125 -0.0625 C-7.03445313 -0.25972656 -5.94390625 -0.45695313 -4.8203125 -0.66015625 C-2 -1 -2 -1 0 0 Z " fill="#EDEDEA" transform="translate(400,220)"/>
<path d="M0 0 C0.66 0.33 1.32 0.66 2 1 C1.88601335 2.62580966 1.75844341 4.25067157 1.625 5.875 C1.52058594 7.23238281 1.52058594 7.23238281 1.4140625 8.6171875 C1 11 1 11 -1 13 C-1.02686553 11.02090602 -1.04633375 9.04171029 -1.0625 7.0625 C-1.07410156 5.96035156 -1.08570313 4.85820312 -1.09765625 3.72265625 C-1 1 -1 1 0 0 Z " fill="#1A2631" transform="translate(783,500)"/>
<path d="M0 0 C0 0.33 0 0.66 0 1 C-3.96 1.66 -7.92 2.32 -12 3 C-12 2.01 -12 1.02 -12 0 C-7.91556885 -1.53166168 -4.20544343 -0.63081652 0 0 Z " fill="#E7E7E5" transform="translate(377,252)"/>
<path d="M0 0 C8.57142857 0.85714286 8.57142857 0.85714286 12 3 C12 3.66 12 4.32 12 5 C8.37 4.34 4.74 3.68 1 3 C0.67 2.01 0.34 1.02 0 0 Z " fill="#E7E7E4" transform="translate(647,250)"/>
<path d="M0 0 C0.99 0 1.98 0 3 0 C2.67 2.31 2.34 4.62 2 7 C1.01 7.33 0.02 7.66 -1 8 C-0.67 5.36 -0.34 2.72 0 0 Z " fill="#202933" transform="translate(658,510)"/>
<path d="M0 0 C6.75 0.75 6.75 0.75 9 3 C5.67465243 4.10844919 3.37817425 3.84454356 0 3 C0 2.01 0 1.02 0 0 Z " fill="#1C252E" transform="translate(651,222)"/>
<path d="M0 0 C0.66 0 1.32 0 2 0 C2 0.66 2 1.32 2 2 C3.32 2.66 4.64 3.32 6 4 C6 4.99 6 5.98 6 7 C3.95880212 5.38405168 1.95927063 3.7143618 0 2 C0 1.34 0 0.68 0 0 Z " fill="#D7D8D7" transform="translate(361,716)"/>
<path d="M0 0 C1 3 1 3 0.0625 5.1875 C-0.4634375 6.0846875 -0.4634375 6.0846875 -1 7 C-1.99 6.67 -2.98 6.34 -4 6 C-2.25 1.125 -2.25 1.125 0 0 Z " fill="#EEEDE8" transform="translate(483,440)"/>
<path d="M0 0 C-1.25 1.5625 -1.25 1.5625 -3 3 C-5.1875 2.6875 -5.1875 2.6875 -7 2 C-7 1.34 -7 0.68 -7 0 C-3.98968256 -0.93423645 -3.13349732 -1.04449911 0 0 Z " fill="#1D2631" transform="translate(344,261)"/>
</svg>
